%TF.GenerationSoftware,KiCad,Pcbnew,8.0.2*%
%TF.CreationDate,2024-12-05T16:11:26+05:30*%
%TF.ProjectId,USB PD,55534220-5044-42e6-9b69-6361645f7063,rev?*%
%TF.SameCoordinates,Original*%
%TF.FileFunction,Copper,L1,Top*%
%TF.FilePolarity,Positive*%
%FSLAX46Y46*%
G04 Gerber Fmt 4.6, Leading zero omitted, Abs format (unit mm)*
G04 Created by KiCad (PCBNEW 8.0.2) date 2024-12-05 16:11:26*
%MOMM*%
%LPD*%
G01*
G04 APERTURE LIST*
G04 Aperture macros list*
%AMRoundRect*
0 Rectangle with rounded corners*
0 $1 Rounding radius*
0 $2 $3 $4 $5 $6 $7 $8 $9 X,Y pos of 4 corners*
0 Add a 4 corners polygon primitive as box body*
4,1,4,$2,$3,$4,$5,$6,$7,$8,$9,$2,$3,0*
0 Add four circle primitives for the rounded corners*
1,1,$1+$1,$2,$3*
1,1,$1+$1,$4,$5*
1,1,$1+$1,$6,$7*
1,1,$1+$1,$8,$9*
0 Add four rect primitives between the rounded corners*
20,1,$1+$1,$2,$3,$4,$5,0*
20,1,$1+$1,$4,$5,$6,$7,0*
20,1,$1+$1,$6,$7,$8,$9,0*
20,1,$1+$1,$8,$9,$2,$3,0*%
%AMFreePoly0*
4,1,19,0.550000,-0.750000,0.000000,-0.750000,0.000000,-0.744911,-0.071157,-0.744911,-0.207708,-0.704816,-0.327430,-0.627875,-0.420627,-0.520320,-0.479746,-0.390866,-0.500000,-0.250000,-0.500000,0.250000,-0.479746,0.390866,-0.420627,0.520320,-0.327430,0.627875,-0.207708,0.704816,-0.071157,0.744911,0.000000,0.744911,0.000000,0.750000,0.550000,0.750000,0.550000,-0.750000,0.550000,-0.750000,
$1*%
%AMFreePoly1*
4,1,19,0.000000,0.744911,0.071157,0.744911,0.207708,0.704816,0.327430,0.627875,0.420627,0.520320,0.479746,0.390866,0.500000,0.250000,0.500000,-0.250000,0.479746,-0.390866,0.420627,-0.520320,0.327430,-0.627875,0.207708,-0.704816,0.071157,-0.744911,0.000000,-0.744911,0.000000,-0.750000,-0.550000,-0.750000,-0.550000,0.750000,0.000000,0.750000,0.000000,0.744911,0.000000,0.744911,
$1*%
G04 Aperture macros list end*
%TA.AperFunction,SMDPad,CuDef*%
%ADD10R,1.200000X0.590000*%
%TD*%
%TA.AperFunction,SMDPad,CuDef*%
%ADD11R,1.200000X0.800000*%
%TD*%
%TA.AperFunction,ComponentPad*%
%ADD12C,1.400000*%
%TD*%
%TA.AperFunction,ComponentPad*%
%ADD13C,3.000000*%
%TD*%
%TA.AperFunction,ComponentPad*%
%ADD14R,3.000000X3.000000*%
%TD*%
%TA.AperFunction,SMDPad,CuDef*%
%ADD15R,1.300000X0.600000*%
%TD*%
%TA.AperFunction,ComponentPad*%
%ADD16R,1.150000X1.600000*%
%TD*%
%TA.AperFunction,SMDPad,CuDef*%
%ADD17RoundRect,0.250000X-0.350000X-0.450000X0.350000X-0.450000X0.350000X0.450000X-0.350000X0.450000X0*%
%TD*%
%TA.AperFunction,SMDPad,CuDef*%
%ADD18R,1.400000X1.700000*%
%TD*%
%TA.AperFunction,SMDPad,CuDef*%
%ADD19FreePoly0,270.000000*%
%TD*%
%TA.AperFunction,SMDPad,CuDef*%
%ADD20R,1.500000X1.000000*%
%TD*%
%TA.AperFunction,SMDPad,CuDef*%
%ADD21FreePoly1,270.000000*%
%TD*%
%TA.AperFunction,ViaPad*%
%ADD22C,1.200000*%
%TD*%
%TA.AperFunction,Conductor*%
%ADD23C,0.400000*%
%TD*%
%TA.AperFunction,Conductor*%
%ADD24C,0.600000*%
%TD*%
G04 APERTURE END LIST*
D10*
%TO.P,J1,A5,CC1*%
%TO.N,Net-(J1-CC1)*%
X89657500Y-90305000D03*
%TO.P,J1,A9,VBUS*%
%TO.N,VBUS*%
X89657500Y-92325000D03*
D11*
%TO.P,J1,A12,GND*%
%TO.N,GND*%
X89657500Y-93555000D03*
D10*
%TO.P,J1,B5,CC2*%
%TO.N,Net-(J1-CC2)*%
X89657500Y-91305000D03*
%TO.P,J1,B9,VBUS*%
%TO.N,VBUS*%
X89657500Y-89285000D03*
D11*
%TO.P,J1,B12,GND*%
%TO.N,GND*%
X89657500Y-88055000D03*
D12*
%TO.P,J1,S1,SHIELD*%
X86057500Y-86485000D03*
X85657500Y-95125000D03*
X86057500Y-95125000D03*
X89857500Y-95125000D03*
X89457500Y-95125000D03*
X89457500Y-86485000D03*
X85657500Y-86485000D03*
X89857500Y-86485000D03*
%TD*%
D13*
%TO.P,J2,2,Pin_2*%
%TO.N,GND*%
X109855000Y-90250000D03*
D14*
%TO.P,J2,1,Pin_1*%
%TO.N,VBUS*%
X109855000Y-95250000D03*
%TD*%
D15*
%TO.P,U1,10,PG*%
%TO.N,unconnected-(U1-PG-Pad10)*%
X94940000Y-93440000D03*
%TO.P,U1,9,CFG1*%
%TO.N,Net-(JP1-C)*%
X94940000Y-92440000D03*
%TO.P,U1,8,VBUS*%
%TO.N,unconnected-(U1-VBUS-Pad8)*%
X94940000Y-91440000D03*
%TO.P,U1,7,CC1*%
%TO.N,Net-(J1-CC2)*%
X94940000Y-90440000D03*
%TO.P,U1,6,CC2*%
%TO.N,Net-(J1-CC1)*%
X94940000Y-89440000D03*
%TO.P,U1,5,DM*%
%TO.N,Net-(U1-DM)*%
X100640000Y-89440000D03*
%TO.P,U1,4,DP*%
X100640000Y-90440000D03*
%TO.P,U1,3,CFG3*%
%TO.N,Net-(JP3-C)*%
X100640000Y-91440000D03*
%TO.P,U1,2,CFG2*%
%TO.N,Net-(JP2-C)*%
X100640000Y-92440000D03*
%TO.P,U1,1,VDD*%
%TO.N,VDD*%
X100640000Y-93440000D03*
D16*
%TO.P,U1,0,GND*%
%TO.N,GND*%
X97215000Y-90640000D03*
X97215000Y-92240000D03*
X98365000Y-90640000D03*
X98365000Y-92240000D03*
%TD*%
D17*
%TO.P,R3,1*%
%TO.N,Net-(J1-CC2)*%
X87900000Y-97790000D03*
%TO.P,R3,2*%
%TO.N,GND*%
X89900000Y-97790000D03*
%TD*%
%TO.P,R2,1*%
%TO.N,Net-(J1-CC1)*%
X87900000Y-83820000D03*
%TO.P,R2,2*%
%TO.N,GND*%
X89900000Y-83820000D03*
%TD*%
D18*
%TO.P,R1,1*%
%TO.N,VBUS*%
X92280000Y-95250000D03*
%TO.P,R1,2*%
%TO.N,VDD*%
X95680000Y-95250000D03*
%TD*%
D19*
%TO.P,JP3,1,A*%
%TO.N,VDD*%
X93980000Y-83630000D03*
D20*
%TO.P,JP3,2,C*%
%TO.N,Net-(JP3-C)*%
X93980000Y-85090000D03*
D21*
%TO.P,JP3,3,B*%
%TO.N,GND*%
X93980000Y-86550000D03*
%TD*%
D19*
%TO.P,JP2,1,A*%
%TO.N,VDD*%
X99060000Y-83630000D03*
D20*
%TO.P,JP2,2,C*%
%TO.N,Net-(JP2-C)*%
X99060000Y-85090000D03*
D21*
%TO.P,JP2,3,B*%
%TO.N,GND*%
X99060000Y-86550000D03*
%TD*%
D19*
%TO.P,JP1,1,A*%
%TO.N,VDD*%
X104775000Y-83630000D03*
D20*
%TO.P,JP1,2,C*%
%TO.N,Net-(JP1-C)*%
X104775000Y-85090000D03*
D21*
%TO.P,JP1,3,B*%
%TO.N,GND*%
X104775000Y-86550000D03*
%TD*%
D18*
%TO.P,C1,1*%
%TO.N,VDD*%
X101395000Y-95250000D03*
%TO.P,C1,2*%
%TO.N,GND*%
X97995000Y-95250000D03*
%TD*%
D22*
%TO.N,VDD*%
X102635001Y-93404746D03*
X106680000Y-83820000D03*
%TO.N,GND*%
X100268173Y-87065000D03*
%TO.N,VBUS*%
X92073628Y-88242157D03*
%TD*%
D23*
%TO.N,VDD*%
X102599747Y-93440000D02*
X102635001Y-93404746D01*
X100640000Y-93440000D02*
X102599747Y-93440000D01*
X106490000Y-83630000D02*
X106680000Y-83820000D01*
X104775000Y-83630000D02*
X106490000Y-83630000D01*
%TO.N,GND*%
X99753173Y-86550000D02*
X100268173Y-87065000D01*
X99060000Y-86550000D02*
X99753173Y-86550000D01*
D24*
X94400000Y-86550000D02*
X93980000Y-86550000D01*
X97215000Y-89365000D02*
X94400000Y-86550000D01*
X97215000Y-90640000D02*
X97215000Y-89365000D01*
X85657500Y-86485000D02*
X85657500Y-95125000D01*
%TO.N,VBUS*%
X92070616Y-88242157D02*
X92073628Y-88242157D01*
X91027773Y-89285000D02*
X92070616Y-88242157D01*
X89657500Y-89285000D02*
X91027773Y-89285000D01*
D23*
%TO.N,Net-(J1-CC1)*%
X92145565Y-89440000D02*
X94940000Y-89440000D01*
X91280565Y-90305000D02*
X92145565Y-89440000D01*
X89657500Y-90305000D02*
X91280565Y-90305000D01*
%TO.N,Net-(J1-CC2)*%
X91575000Y-91305000D02*
X89657500Y-91305000D01*
X92440000Y-90440000D02*
X91575000Y-91305000D01*
X94940000Y-90440000D02*
X92440000Y-90440000D01*
X87900000Y-91987500D02*
X87900000Y-97790000D01*
X89657500Y-91305000D02*
X88582500Y-91305000D01*
X88582500Y-91305000D02*
X87900000Y-91987500D01*
%TO.N,Net-(J1-CC1)*%
X87900000Y-89622500D02*
X88582500Y-90305000D01*
X88582500Y-90305000D02*
X89657500Y-90305000D01*
X87900000Y-83820000D02*
X87900000Y-89622500D01*
%TO.N,VDD*%
X101395000Y-93670597D02*
X101395000Y-95250000D01*
X101164403Y-93440000D02*
X101395000Y-93670597D01*
X100640000Y-93440000D02*
X101164403Y-93440000D01*
%TO.N,GND*%
X89922500Y-86550000D02*
X89857500Y-86485000D01*
X93980000Y-86550000D02*
X89922500Y-86550000D01*
X104775000Y-88900000D02*
X104775000Y-86550000D01*
X106125000Y-90250000D02*
X104775000Y-88900000D01*
X109855000Y-90250000D02*
X106125000Y-90250000D01*
%TO.N,VDD*%
X99060000Y-83630000D02*
X104775000Y-83630000D01*
X93980000Y-83630000D02*
X99060000Y-83630000D01*
%TO.N,Net-(JP1-C)*%
X93790000Y-92440000D02*
X94940000Y-92440000D01*
X93690000Y-92540000D02*
X93790000Y-92440000D01*
X93690000Y-96230000D02*
X93690000Y-92540000D01*
X101890000Y-97500000D02*
X94960000Y-97500000D01*
X103835000Y-95555000D02*
X101890000Y-97500000D01*
X94960000Y-97500000D02*
X93690000Y-96230000D01*
X103835000Y-88222766D02*
X103835000Y-95555000D01*
X103373617Y-85341383D02*
X103373617Y-87761383D01*
X103625000Y-85090000D02*
X103373617Y-85341383D01*
X103373617Y-87761383D02*
X103835000Y-88222766D01*
X104775000Y-85090000D02*
X103625000Y-85090000D01*
%TO.N,Net-(JP2-C)*%
X101465477Y-86984614D02*
X101465477Y-85493060D01*
X101465477Y-85493060D02*
X101062417Y-85090000D01*
X101062417Y-85090000D02*
X99060000Y-85090000D01*
X103035000Y-91326371D02*
X103035000Y-88554137D01*
X101921371Y-92440000D02*
X103035000Y-91326371D01*
X100640000Y-92440000D02*
X101921371Y-92440000D01*
X103035000Y-88554137D02*
X101465477Y-86984614D01*
%TO.N,Net-(JP3-C)*%
X101790000Y-91440000D02*
X100640000Y-91440000D01*
X102235000Y-88900000D02*
X102235000Y-90995000D01*
X97472500Y-88265000D02*
X101600000Y-88265000D01*
X96520000Y-87312500D02*
X97472500Y-88265000D01*
X96520000Y-85725000D02*
X96520000Y-87312500D01*
X101600000Y-88265000D02*
X102235000Y-88900000D01*
X102235000Y-90995000D02*
X101790000Y-91440000D01*
X95885000Y-85090000D02*
X96520000Y-85725000D01*
X93980000Y-85090000D02*
X95885000Y-85090000D01*
D24*
%TO.N,VBUS*%
X105410000Y-98425000D02*
X108585000Y-95250000D01*
X93980000Y-98425000D02*
X105410000Y-98425000D01*
X92280000Y-96725000D02*
X93980000Y-98425000D01*
X92280000Y-95250000D02*
X92280000Y-96725000D01*
X108585000Y-95250000D02*
X109855000Y-95250000D01*
D23*
%TO.N,Net-(U1-DM)*%
X100640000Y-89440000D02*
X100640000Y-90440000D01*
D24*
%TO.N,GND*%
X89657500Y-88055000D02*
X89657500Y-86685000D01*
X89657500Y-86685000D02*
X89857500Y-86485000D01*
X89657500Y-93555000D02*
X89657500Y-94925000D01*
X89657500Y-94925000D02*
X89857500Y-95125000D01*
%TO.N,VBUS*%
X92280000Y-94185000D02*
X92280000Y-95250000D01*
X90420000Y-92325000D02*
X92280000Y-94185000D01*
X89657500Y-92325000D02*
X90420000Y-92325000D01*
D23*
%TO.N,VDD*%
X101395000Y-96090000D02*
X101395000Y-95250000D01*
X100785000Y-96700000D02*
X101395000Y-96090000D01*
X96065000Y-96700000D02*
X100785000Y-96700000D01*
X95680000Y-95250000D02*
X95680000Y-96315000D01*
X95680000Y-96315000D02*
X96065000Y-96700000D01*
%TO.N,GND*%
X97995000Y-92610000D02*
X98365000Y-92240000D01*
X97995000Y-95250000D02*
X97995000Y-92610000D01*
X89900000Y-86442500D02*
X89857500Y-86485000D01*
X89900000Y-83820000D02*
X89900000Y-86442500D01*
X89900000Y-95167500D02*
X89857500Y-95125000D01*
X89900000Y-97790000D02*
X89900000Y-95167500D01*
%TD*%
M02*
