%TF.GenerationSoftware,KiCad,Pcbnew,8.0.2*%
%TF.CreationDate,2024-12-05T16:11:26+05:30*%
%TF.ProjectId,USB PD,55534220-5044-42e6-9b69-6361645f7063,rev?*%
%TF.SameCoordinates,Original*%
%TF.FileFunction,Legend,Top*%
%TF.FilePolarity,Positive*%
%FSLAX46Y46*%
G04 Gerber Fmt 4.6, Leading zero omitted, Abs format (unit mm)*
G04 Created by KiCad (PCBNEW 8.0.2) date 2024-12-05 16:11:26*
%MOMM*%
%LPD*%
G01*
G04 APERTURE LIST*
%ADD10C,0.150000*%
%ADD11C,0.120000*%
%ADD12C,0.303607*%
%ADD13C,0.160000*%
G04 APERTURE END LIST*
D10*
X87402680Y-90471666D02*
X86688395Y-90471666D01*
X86688395Y-90471666D02*
X86545538Y-90424047D01*
X86545538Y-90424047D02*
X86450300Y-90328809D01*
X86450300Y-90328809D02*
X86402680Y-90185952D01*
X86402680Y-90185952D02*
X86402680Y-90090714D01*
X86402680Y-91471666D02*
X86402680Y-90900238D01*
X86402680Y-91185952D02*
X87402680Y-91185952D01*
X87402680Y-91185952D02*
X87259823Y-91090714D01*
X87259823Y-91090714D02*
X87164585Y-90995476D01*
X87164585Y-90995476D02*
X87116966Y-90900238D01*
X112484819Y-95663333D02*
X113199104Y-95663333D01*
X113199104Y-95663333D02*
X113341961Y-95710952D01*
X113341961Y-95710952D02*
X113437200Y-95806190D01*
X113437200Y-95806190D02*
X113484819Y-95949047D01*
X113484819Y-95949047D02*
X113484819Y-96044285D01*
X112580057Y-95234761D02*
X112532438Y-95187142D01*
X112532438Y-95187142D02*
X112484819Y-95091904D01*
X112484819Y-95091904D02*
X112484819Y-94853809D01*
X112484819Y-94853809D02*
X112532438Y-94758571D01*
X112532438Y-94758571D02*
X112580057Y-94710952D01*
X112580057Y-94710952D02*
X112675295Y-94663333D01*
X112675295Y-94663333D02*
X112770533Y-94663333D01*
X112770533Y-94663333D02*
X112913390Y-94710952D01*
X112913390Y-94710952D02*
X113484819Y-95282380D01*
X113484819Y-95282380D02*
X113484819Y-94663333D01*
X98551904Y-95635180D02*
X98551904Y-94825657D01*
X98551904Y-94825657D02*
X98504285Y-94730419D01*
X98504285Y-94730419D02*
X98456666Y-94682800D01*
X98456666Y-94682800D02*
X98361428Y-94635180D01*
X98361428Y-94635180D02*
X98170952Y-94635180D01*
X98170952Y-94635180D02*
X98075714Y-94682800D01*
X98075714Y-94682800D02*
X98028095Y-94730419D01*
X98028095Y-94730419D02*
X97980476Y-94825657D01*
X97980476Y-94825657D02*
X97980476Y-95635180D01*
X96980476Y-94635180D02*
X97551904Y-94635180D01*
X97266190Y-94635180D02*
X97266190Y-95635180D01*
X97266190Y-95635180D02*
X97361428Y-95492323D01*
X97361428Y-95492323D02*
X97456666Y-95397085D01*
X97456666Y-95397085D02*
X97551904Y-95349466D01*
X88733333Y-98244819D02*
X88400000Y-97768628D01*
X88161905Y-98244819D02*
X88161905Y-97244819D01*
X88161905Y-97244819D02*
X88542857Y-97244819D01*
X88542857Y-97244819D02*
X88638095Y-97292438D01*
X88638095Y-97292438D02*
X88685714Y-97340057D01*
X88685714Y-97340057D02*
X88733333Y-97435295D01*
X88733333Y-97435295D02*
X88733333Y-97578152D01*
X88733333Y-97578152D02*
X88685714Y-97673390D01*
X88685714Y-97673390D02*
X88638095Y-97721009D01*
X88638095Y-97721009D02*
X88542857Y-97768628D01*
X88542857Y-97768628D02*
X88161905Y-97768628D01*
X89066667Y-97244819D02*
X89685714Y-97244819D01*
X89685714Y-97244819D02*
X89352381Y-97625771D01*
X89352381Y-97625771D02*
X89495238Y-97625771D01*
X89495238Y-97625771D02*
X89590476Y-97673390D01*
X89590476Y-97673390D02*
X89638095Y-97721009D01*
X89638095Y-97721009D02*
X89685714Y-97816247D01*
X89685714Y-97816247D02*
X89685714Y-98054342D01*
X89685714Y-98054342D02*
X89638095Y-98149580D01*
X89638095Y-98149580D02*
X89590476Y-98197200D01*
X89590476Y-98197200D02*
X89495238Y-98244819D01*
X89495238Y-98244819D02*
X89209524Y-98244819D01*
X89209524Y-98244819D02*
X89114286Y-98197200D01*
X89114286Y-98197200D02*
X89066667Y-98149580D01*
X88733333Y-84274819D02*
X88400000Y-83798628D01*
X88161905Y-84274819D02*
X88161905Y-83274819D01*
X88161905Y-83274819D02*
X88542857Y-83274819D01*
X88542857Y-83274819D02*
X88638095Y-83322438D01*
X88638095Y-83322438D02*
X88685714Y-83370057D01*
X88685714Y-83370057D02*
X88733333Y-83465295D01*
X88733333Y-83465295D02*
X88733333Y-83608152D01*
X88733333Y-83608152D02*
X88685714Y-83703390D01*
X88685714Y-83703390D02*
X88638095Y-83751009D01*
X88638095Y-83751009D02*
X88542857Y-83798628D01*
X88542857Y-83798628D02*
X88161905Y-83798628D01*
X89114286Y-83370057D02*
X89161905Y-83322438D01*
X89161905Y-83322438D02*
X89257143Y-83274819D01*
X89257143Y-83274819D02*
X89495238Y-83274819D01*
X89495238Y-83274819D02*
X89590476Y-83322438D01*
X89590476Y-83322438D02*
X89638095Y-83370057D01*
X89638095Y-83370057D02*
X89685714Y-83465295D01*
X89685714Y-83465295D02*
X89685714Y-83560533D01*
X89685714Y-83560533D02*
X89638095Y-83703390D01*
X89638095Y-83703390D02*
X89066667Y-84274819D01*
X89066667Y-84274819D02*
X89685714Y-84274819D01*
X93813333Y-95704819D02*
X93480000Y-95228628D01*
X93241905Y-95704819D02*
X93241905Y-94704819D01*
X93241905Y-94704819D02*
X93622857Y-94704819D01*
X93622857Y-94704819D02*
X93718095Y-94752438D01*
X93718095Y-94752438D02*
X93765714Y-94800057D01*
X93765714Y-94800057D02*
X93813333Y-94895295D01*
X93813333Y-94895295D02*
X93813333Y-95038152D01*
X93813333Y-95038152D02*
X93765714Y-95133390D01*
X93765714Y-95133390D02*
X93718095Y-95181009D01*
X93718095Y-95181009D02*
X93622857Y-95228628D01*
X93622857Y-95228628D02*
X93241905Y-95228628D01*
X94765714Y-95704819D02*
X94194286Y-95704819D01*
X94480000Y-95704819D02*
X94480000Y-94704819D01*
X94480000Y-94704819D02*
X94384762Y-94847676D01*
X94384762Y-94847676D02*
X94289524Y-94942914D01*
X94289524Y-94942914D02*
X94194286Y-94990533D01*
X95234819Y-85923333D02*
X95949104Y-85923333D01*
X95949104Y-85923333D02*
X96091961Y-85970952D01*
X96091961Y-85970952D02*
X96187200Y-86066190D01*
X96187200Y-86066190D02*
X96234819Y-86209047D01*
X96234819Y-86209047D02*
X96234819Y-86304285D01*
X96234819Y-85447142D02*
X95234819Y-85447142D01*
X95234819Y-85447142D02*
X95234819Y-85066190D01*
X95234819Y-85066190D02*
X95282438Y-84970952D01*
X95282438Y-84970952D02*
X95330057Y-84923333D01*
X95330057Y-84923333D02*
X95425295Y-84875714D01*
X95425295Y-84875714D02*
X95568152Y-84875714D01*
X95568152Y-84875714D02*
X95663390Y-84923333D01*
X95663390Y-84923333D02*
X95711009Y-84970952D01*
X95711009Y-84970952D02*
X95758628Y-85066190D01*
X95758628Y-85066190D02*
X95758628Y-85447142D01*
X95234819Y-84542380D02*
X95234819Y-83923333D01*
X95234819Y-83923333D02*
X95615771Y-84256666D01*
X95615771Y-84256666D02*
X95615771Y-84113809D01*
X95615771Y-84113809D02*
X95663390Y-84018571D01*
X95663390Y-84018571D02*
X95711009Y-83970952D01*
X95711009Y-83970952D02*
X95806247Y-83923333D01*
X95806247Y-83923333D02*
X96044342Y-83923333D01*
X96044342Y-83923333D02*
X96139580Y-83970952D01*
X96139580Y-83970952D02*
X96187200Y-84018571D01*
X96187200Y-84018571D02*
X96234819Y-84113809D01*
X96234819Y-84113809D02*
X96234819Y-84399523D01*
X96234819Y-84399523D02*
X96187200Y-84494761D01*
X96187200Y-84494761D02*
X96139580Y-84542380D01*
X100314819Y-85923333D02*
X101029104Y-85923333D01*
X101029104Y-85923333D02*
X101171961Y-85970952D01*
X101171961Y-85970952D02*
X101267200Y-86066190D01*
X101267200Y-86066190D02*
X101314819Y-86209047D01*
X101314819Y-86209047D02*
X101314819Y-86304285D01*
X101314819Y-85447142D02*
X100314819Y-85447142D01*
X100314819Y-85447142D02*
X100314819Y-85066190D01*
X100314819Y-85066190D02*
X100362438Y-84970952D01*
X100362438Y-84970952D02*
X100410057Y-84923333D01*
X100410057Y-84923333D02*
X100505295Y-84875714D01*
X100505295Y-84875714D02*
X100648152Y-84875714D01*
X100648152Y-84875714D02*
X100743390Y-84923333D01*
X100743390Y-84923333D02*
X100791009Y-84970952D01*
X100791009Y-84970952D02*
X100838628Y-85066190D01*
X100838628Y-85066190D02*
X100838628Y-85447142D01*
X100410057Y-84494761D02*
X100362438Y-84447142D01*
X100362438Y-84447142D02*
X100314819Y-84351904D01*
X100314819Y-84351904D02*
X100314819Y-84113809D01*
X100314819Y-84113809D02*
X100362438Y-84018571D01*
X100362438Y-84018571D02*
X100410057Y-83970952D01*
X100410057Y-83970952D02*
X100505295Y-83923333D01*
X100505295Y-83923333D02*
X100600533Y-83923333D01*
X100600533Y-83923333D02*
X100743390Y-83970952D01*
X100743390Y-83970952D02*
X101314819Y-84542380D01*
X101314819Y-84542380D02*
X101314819Y-83923333D01*
X106029819Y-85923333D02*
X106744104Y-85923333D01*
X106744104Y-85923333D02*
X106886961Y-85970952D01*
X106886961Y-85970952D02*
X106982200Y-86066190D01*
X106982200Y-86066190D02*
X107029819Y-86209047D01*
X107029819Y-86209047D02*
X107029819Y-86304285D01*
X107029819Y-85447142D02*
X106029819Y-85447142D01*
X106029819Y-85447142D02*
X106029819Y-85066190D01*
X106029819Y-85066190D02*
X106077438Y-84970952D01*
X106077438Y-84970952D02*
X106125057Y-84923333D01*
X106125057Y-84923333D02*
X106220295Y-84875714D01*
X106220295Y-84875714D02*
X106363152Y-84875714D01*
X106363152Y-84875714D02*
X106458390Y-84923333D01*
X106458390Y-84923333D02*
X106506009Y-84970952D01*
X106506009Y-84970952D02*
X106553628Y-85066190D01*
X106553628Y-85066190D02*
X106553628Y-85447142D01*
X107029819Y-83923333D02*
X107029819Y-84494761D01*
X107029819Y-84209047D02*
X106029819Y-84209047D01*
X106029819Y-84209047D02*
X106172676Y-84304285D01*
X106172676Y-84304285D02*
X106267914Y-84399523D01*
X106267914Y-84399523D02*
X106315533Y-84494761D01*
X99528333Y-95609580D02*
X99480714Y-95657200D01*
X99480714Y-95657200D02*
X99337857Y-95704819D01*
X99337857Y-95704819D02*
X99242619Y-95704819D01*
X99242619Y-95704819D02*
X99099762Y-95657200D01*
X99099762Y-95657200D02*
X99004524Y-95561961D01*
X99004524Y-95561961D02*
X98956905Y-95466723D01*
X98956905Y-95466723D02*
X98909286Y-95276247D01*
X98909286Y-95276247D02*
X98909286Y-95133390D01*
X98909286Y-95133390D02*
X98956905Y-94942914D01*
X98956905Y-94942914D02*
X99004524Y-94847676D01*
X99004524Y-94847676D02*
X99099762Y-94752438D01*
X99099762Y-94752438D02*
X99242619Y-94704819D01*
X99242619Y-94704819D02*
X99337857Y-94704819D01*
X99337857Y-94704819D02*
X99480714Y-94752438D01*
X99480714Y-94752438D02*
X99528333Y-94800057D01*
X100480714Y-95704819D02*
X99909286Y-95704819D01*
X100195000Y-95704819D02*
X100195000Y-94704819D01*
X100195000Y-94704819D02*
X100099762Y-94847676D01*
X100099762Y-94847676D02*
X100004524Y-94942914D01*
X100004524Y-94942914D02*
X99909286Y-94990533D01*
D11*
%TO.C,J2*%
X105855000Y-87150000D02*
X115055000Y-87150000D01*
X105855000Y-98350000D02*
X105855000Y-87150000D01*
X115055000Y-98350000D02*
X115055000Y-87150000D01*
X105855000Y-98350000D02*
X115055000Y-98350000D01*
%TO.C,U1*%
D12*
X100741803Y-94340000D02*
G75*
G02*
X100438197Y-94340000I-151803J0D01*
G01*
X100438197Y-94340000D02*
G75*
G02*
X100741803Y-94340000I151803J0D01*
G01*
D13*
X99740000Y-93940000D02*
X95840000Y-93940000D01*
X95840000Y-88940000D01*
X99740000Y-88940000D01*
X99740000Y-93940000D01*
D11*
%TO.C,R3*%
X88672936Y-97055000D02*
X89127064Y-97055000D01*
X88672936Y-98525000D02*
X89127064Y-98525000D01*
%TO.C,R2*%
X88672936Y-83085000D02*
X89127064Y-83085000D01*
X88672936Y-84555000D02*
X89127064Y-84555000D01*
%TO.C,R1*%
X92980000Y-94180000D02*
X94980000Y-94180000D01*
X94980000Y-96320000D02*
X92980000Y-96320000D01*
%TO.C,JP3*%
X93680000Y-83040000D02*
X94280000Y-83040000D01*
X92480000Y-83590000D02*
X92480000Y-84190000D01*
X94980000Y-83690000D02*
X94980000Y-86490000D01*
X92780000Y-83890000D02*
X92480000Y-83590000D01*
X92780000Y-83890000D02*
X92480000Y-84190000D01*
X92980000Y-86490000D02*
X92980000Y-83690000D01*
X94280000Y-87140000D02*
X93680000Y-87140000D01*
X94280000Y-83040000D02*
G75*
G02*
X94980000Y-83740000I1J-699999D01*
G01*
X92980000Y-83740000D02*
G75*
G02*
X93680000Y-83040000I699999J1D01*
G01*
X94980000Y-86440000D02*
G75*
G02*
X94280000Y-87140000I-700000J0D01*
G01*
X93680000Y-87140000D02*
G75*
G02*
X92980000Y-86440000I0J700000D01*
G01*
%TO.C,JP2*%
X98760000Y-83040000D02*
X99360000Y-83040000D01*
X97560000Y-83590000D02*
X97560000Y-84190000D01*
X100060000Y-83690000D02*
X100060000Y-86490000D01*
X97860000Y-83890000D02*
X97560000Y-83590000D01*
X97860000Y-83890000D02*
X97560000Y-84190000D01*
X98060000Y-86490000D02*
X98060000Y-83690000D01*
X99360000Y-87140000D02*
X98760000Y-87140000D01*
X99360000Y-83040000D02*
G75*
G02*
X100060000Y-83740000I1J-699999D01*
G01*
X98060000Y-83740000D02*
G75*
G02*
X98760000Y-83040000I699999J1D01*
G01*
X100060000Y-86440000D02*
G75*
G02*
X99360000Y-87140000I-700000J0D01*
G01*
X98760000Y-87140000D02*
G75*
G02*
X98060000Y-86440000I0J700000D01*
G01*
%TO.C,JP1*%
X104475000Y-83040000D02*
X105075000Y-83040000D01*
X103275000Y-83590000D02*
X103275000Y-84190000D01*
X105775000Y-83690000D02*
X105775000Y-86490000D01*
X103575000Y-83890000D02*
X103275000Y-83590000D01*
X103575000Y-83890000D02*
X103275000Y-84190000D01*
X103775000Y-86490000D02*
X103775000Y-83690000D01*
X105075000Y-87140000D02*
X104475000Y-87140000D01*
X105075000Y-83040000D02*
G75*
G02*
X105775000Y-83740000I1J-699999D01*
G01*
X103775000Y-83740000D02*
G75*
G02*
X104475000Y-83040000I699999J1D01*
G01*
X105775000Y-86440000D02*
G75*
G02*
X105075000Y-87140000I-700000J0D01*
G01*
X104475000Y-87140000D02*
G75*
G02*
X103775000Y-86440000I0J700000D01*
G01*
%TO.C,C1*%
X100695000Y-96320000D02*
X98695000Y-96320000D01*
X98695000Y-94180000D02*
X100695000Y-94180000D01*
%TD*%
M02*
