%TF.GenerationSoftware,KiCad,Pcbnew,8.0.2*%
%TF.CreationDate,2024-12-05T16:11:26+05:30*%
%TF.ProjectId,USB PD,55534220-5044-42e6-9b69-6361645f7063,rev?*%
%TF.SameCoordinates,Original*%
%TF.FileFunction,Copper,L2,Bot*%
%TF.FilePolarity,Positive*%
%FSLAX46Y46*%
G04 Gerber Fmt 4.6, Leading zero omitted, Abs format (unit mm)*
G04 Created by KiCad (PCBNEW 8.0.2) date 2024-12-05 16:11:26*
%MOMM*%
%LPD*%
G01*
G04 APERTURE LIST*
%TA.AperFunction,ComponentPad*%
%ADD10C,1.400000*%
%TD*%
%TA.AperFunction,ComponentPad*%
%ADD11C,3.000000*%
%TD*%
%TA.AperFunction,ComponentPad*%
%ADD12R,3.000000X3.000000*%
%TD*%
%TA.AperFunction,ComponentPad*%
%ADD13R,1.150000X1.600000*%
%TD*%
%TA.AperFunction,ViaPad*%
%ADD14C,1.200000*%
%TD*%
%TA.AperFunction,Conductor*%
%ADD15C,0.400000*%
%TD*%
%TA.AperFunction,Conductor*%
%ADD16C,0.600000*%
%TD*%
G04 APERTURE END LIST*
D10*
%TO.P,J1,S1,SHIELD*%
%TO.N,GND*%
X86057500Y-86485000D03*
X85657500Y-95125000D03*
X86057500Y-95125000D03*
X89857500Y-95125000D03*
X89457500Y-95125000D03*
X89457500Y-86485000D03*
X85657500Y-86485000D03*
X89857500Y-86485000D03*
%TD*%
D11*
%TO.P,J2,2,Pin_2*%
%TO.N,GND*%
X109855000Y-90250000D03*
D12*
%TO.P,J2,1,Pin_1*%
%TO.N,VBUS*%
X109855000Y-95250000D03*
%TD*%
D13*
%TO.P,U1,0,GND*%
%TO.N,GND*%
X97215000Y-90640000D03*
X97215000Y-92240000D03*
X98365000Y-90640000D03*
X98365000Y-92240000D03*
%TD*%
D14*
%TO.N,VDD*%
X102635001Y-93404746D03*
X106680000Y-83820000D03*
%TO.N,GND*%
X100268173Y-87065000D03*
%TO.N,VBUS*%
X92073628Y-88242157D03*
%TD*%
D15*
%TO.N,VDD*%
X102889747Y-93150000D02*
X102635001Y-93404746D01*
X110685000Y-93150000D02*
X102889747Y-93150000D01*
X112395000Y-85725000D02*
X112395000Y-91440000D01*
X112395000Y-91440000D02*
X110685000Y-93150000D01*
X110490000Y-83820000D02*
X112395000Y-85725000D01*
X106680000Y-83820000D02*
X110490000Y-83820000D01*
D16*
%TO.N,VBUS*%
X108496479Y-95250000D02*
X109855000Y-95250000D01*
X105321479Y-98425000D02*
X108496479Y-95250000D01*
X93980000Y-98425000D02*
X105321479Y-98425000D01*
X92073628Y-96518628D02*
X93980000Y-98425000D01*
X92073628Y-88242157D02*
X92073628Y-96518628D01*
%TD*%
%TA.AperFunction,Conductor*%
%TO.N,GND*%
G36*
X113770961Y-82749176D02*
G01*
X113940474Y-82764001D01*
X113961753Y-82767752D01*
X114120889Y-82810387D01*
X114141198Y-82817780D01*
X114162855Y-82827878D01*
X114290496Y-82887395D01*
X114309210Y-82898199D01*
X114444156Y-82992685D01*
X114460715Y-83006578D01*
X114567604Y-83113464D01*
X114577203Y-83123062D01*
X114591092Y-83139614D01*
X114685585Y-83274561D01*
X114696389Y-83293274D01*
X114766009Y-83442573D01*
X114773402Y-83462884D01*
X114816039Y-83622007D01*
X114819792Y-83643293D01*
X114834584Y-83812361D01*
X114835056Y-83823169D01*
X114835056Y-83870315D01*
X114835062Y-83870380D01*
X114836925Y-98421860D01*
X114836453Y-98432681D01*
X114821627Y-98602186D01*
X114817875Y-98623471D01*
X114775241Y-98782600D01*
X114767848Y-98802913D01*
X114698233Y-98952209D01*
X114687426Y-98970927D01*
X114592940Y-99105873D01*
X114579047Y-99122431D01*
X114462565Y-99238918D01*
X114446007Y-99252813D01*
X114311066Y-99347303D01*
X114292349Y-99358110D01*
X114143052Y-99427733D01*
X114122740Y-99435126D01*
X113963623Y-99477765D01*
X113942337Y-99481519D01*
X113773452Y-99496298D01*
X113762598Y-99496770D01*
X84509257Y-99486458D01*
X84509083Y-99486440D01*
X84462394Y-99486440D01*
X84451588Y-99485968D01*
X84282067Y-99471134D01*
X84260781Y-99467380D01*
X84101669Y-99424744D01*
X84081359Y-99417352D01*
X83932060Y-99347732D01*
X83913342Y-99336925D01*
X83793216Y-99252813D01*
X83778399Y-99242438D01*
X83761846Y-99228548D01*
X83645361Y-99112063D01*
X83631468Y-99095507D01*
X83536979Y-98960567D01*
X83526172Y-98941848D01*
X83456552Y-98792554D01*
X83449161Y-98772248D01*
X83437925Y-98730320D01*
X83406521Y-98613127D01*
X83402768Y-98591847D01*
X83387947Y-98422506D01*
X83387476Y-98411734D01*
X83387476Y-98377052D01*
X83387476Y-98364822D01*
X83387469Y-98364754D01*
X83387369Y-97624500D01*
X83387030Y-95124999D01*
X84452359Y-95124999D01*
X84452359Y-95125000D01*
X84472878Y-95346439D01*
X84533740Y-95560350D01*
X84632869Y-95759428D01*
X84648637Y-95780308D01*
X84648638Y-95780308D01*
X85257500Y-95171446D01*
X85257500Y-95177661D01*
X85284759Y-95279394D01*
X85337420Y-95370606D01*
X85411894Y-95445080D01*
X85503106Y-95497741D01*
X85604839Y-95525000D01*
X85611052Y-95525000D01*
X85004172Y-96131879D01*
X85004172Y-96131880D01*
X85120321Y-96203797D01*
X85120322Y-96203798D01*
X85327695Y-96284134D01*
X85546307Y-96325000D01*
X85768695Y-96325000D01*
X85768700Y-96324999D01*
X85834714Y-96312659D01*
X85880286Y-96312659D01*
X85946299Y-96324999D01*
X85946305Y-96325000D01*
X86168693Y-96325000D01*
X86387309Y-96284133D01*
X86594668Y-96203801D01*
X86594681Y-96203795D01*
X86710826Y-96131879D01*
X86103947Y-95525000D01*
X86110161Y-95525000D01*
X86211894Y-95497741D01*
X86303106Y-95445080D01*
X86377580Y-95370606D01*
X86430241Y-95279394D01*
X86457500Y-95177661D01*
X86457500Y-95171447D01*
X87066361Y-95780308D01*
X87082131Y-95759425D01*
X87082133Y-95759422D01*
X87181259Y-95560350D01*
X87242121Y-95346439D01*
X87262641Y-95125000D01*
X87262641Y-95124999D01*
X87242121Y-94903560D01*
X87181259Y-94689649D01*
X87082135Y-94490580D01*
X87082130Y-94490572D01*
X87066360Y-94469690D01*
X86457500Y-95078551D01*
X86457500Y-95072339D01*
X86430241Y-94970606D01*
X86377580Y-94879394D01*
X86303106Y-94804920D01*
X86211894Y-94752259D01*
X86110161Y-94725000D01*
X86103947Y-94725000D01*
X86710827Y-94118119D01*
X86594678Y-94046202D01*
X86594677Y-94046201D01*
X86387304Y-93965865D01*
X86168693Y-93925000D01*
X85946306Y-93925000D01*
X85880284Y-93937341D01*
X85834716Y-93937341D01*
X85768694Y-93925000D01*
X85546307Y-93925000D01*
X85327695Y-93965865D01*
X85120324Y-94046200D01*
X85120323Y-94046201D01*
X85004171Y-94118119D01*
X85611053Y-94725000D01*
X85604839Y-94725000D01*
X85503106Y-94752259D01*
X85411894Y-94804920D01*
X85337420Y-94879394D01*
X85284759Y-94970606D01*
X85257500Y-95072339D01*
X85257500Y-95078553D01*
X84648638Y-94469691D01*
X84648637Y-94469691D01*
X84632868Y-94490574D01*
X84533740Y-94689649D01*
X84472878Y-94903560D01*
X84452359Y-95124999D01*
X83387030Y-95124999D01*
X83385860Y-86484999D01*
X84452359Y-86484999D01*
X84452359Y-86485000D01*
X84472878Y-86706439D01*
X84533740Y-86920350D01*
X84632869Y-87119428D01*
X84648637Y-87140308D01*
X84648638Y-87140308D01*
X85257500Y-86531446D01*
X85257500Y-86537661D01*
X85284759Y-86639394D01*
X85337420Y-86730606D01*
X85411894Y-86805080D01*
X85503106Y-86857741D01*
X85604839Y-86885000D01*
X85611052Y-86885000D01*
X85004172Y-87491879D01*
X85004172Y-87491880D01*
X85120321Y-87563797D01*
X85120322Y-87563798D01*
X85327695Y-87644134D01*
X85546307Y-87685000D01*
X85768695Y-87685000D01*
X85768700Y-87684999D01*
X85834714Y-87672659D01*
X85880286Y-87672659D01*
X85946299Y-87684999D01*
X85946305Y-87685000D01*
X86168693Y-87685000D01*
X86387309Y-87644133D01*
X86594668Y-87563801D01*
X86594681Y-87563795D01*
X86710826Y-87491879D01*
X86103947Y-86885000D01*
X86110161Y-86885000D01*
X86211894Y-86857741D01*
X86303106Y-86805080D01*
X86377580Y-86730606D01*
X86430241Y-86639394D01*
X86457500Y-86537661D01*
X86457500Y-86531447D01*
X87066361Y-87140308D01*
X87082131Y-87119425D01*
X87082133Y-87119422D01*
X87181259Y-86920350D01*
X87242121Y-86706439D01*
X87262641Y-86485000D01*
X87262641Y-86484999D01*
X88252359Y-86484999D01*
X88252359Y-86485000D01*
X88272878Y-86706439D01*
X88333740Y-86920350D01*
X88432869Y-87119428D01*
X88448637Y-87140308D01*
X88448638Y-87140308D01*
X89057500Y-86531446D01*
X89057500Y-86537661D01*
X89084759Y-86639394D01*
X89137420Y-86730606D01*
X89211894Y-86805080D01*
X89303106Y-86857741D01*
X89404839Y-86885000D01*
X89411052Y-86885000D01*
X88804172Y-87491879D01*
X88804172Y-87491880D01*
X88920321Y-87563797D01*
X88920322Y-87563798D01*
X89127695Y-87644134D01*
X89346307Y-87685000D01*
X89568695Y-87685000D01*
X89568700Y-87684999D01*
X89634714Y-87672659D01*
X89680286Y-87672659D01*
X89746299Y-87684999D01*
X89746305Y-87685000D01*
X89968693Y-87685000D01*
X90187309Y-87644133D01*
X90394668Y-87563801D01*
X90394681Y-87563795D01*
X90510826Y-87491879D01*
X89903947Y-86885000D01*
X89910161Y-86885000D01*
X90011894Y-86857741D01*
X90103106Y-86805080D01*
X90177580Y-86730606D01*
X90230241Y-86639394D01*
X90257500Y-86537661D01*
X90257500Y-86531447D01*
X90866361Y-87140308D01*
X90882131Y-87119425D01*
X90882133Y-87119422D01*
X90981259Y-86920350D01*
X91042121Y-86706439D01*
X91062641Y-86485000D01*
X91062641Y-86484999D01*
X91042121Y-86263560D01*
X90981259Y-86049649D01*
X90882135Y-85850580D01*
X90882130Y-85850572D01*
X90866360Y-85829690D01*
X90257500Y-86438551D01*
X90257500Y-86432339D01*
X90230241Y-86330606D01*
X90177580Y-86239394D01*
X90103106Y-86164920D01*
X90011894Y-86112259D01*
X89910161Y-86085000D01*
X89903947Y-86085000D01*
X90510827Y-85478119D01*
X90394678Y-85406202D01*
X90394677Y-85406201D01*
X90187304Y-85325865D01*
X89968693Y-85285000D01*
X89746306Y-85285000D01*
X89680284Y-85297341D01*
X89634716Y-85297341D01*
X89568694Y-85285000D01*
X89346307Y-85285000D01*
X89127695Y-85325865D01*
X88920324Y-85406200D01*
X88920323Y-85406201D01*
X88804171Y-85478119D01*
X89411053Y-86085000D01*
X89404839Y-86085000D01*
X89303106Y-86112259D01*
X89211894Y-86164920D01*
X89137420Y-86239394D01*
X89084759Y-86330606D01*
X89057500Y-86432339D01*
X89057500Y-86438553D01*
X88448638Y-85829691D01*
X88448637Y-85829691D01*
X88432868Y-85850574D01*
X88333740Y-86049649D01*
X88272878Y-86263560D01*
X88252359Y-86484999D01*
X87262641Y-86484999D01*
X87242121Y-86263560D01*
X87181259Y-86049649D01*
X87082135Y-85850580D01*
X87082130Y-85850572D01*
X87066360Y-85829690D01*
X86457500Y-86438551D01*
X86457500Y-86432339D01*
X86430241Y-86330606D01*
X86377580Y-86239394D01*
X86303106Y-86164920D01*
X86211894Y-86112259D01*
X86110161Y-86085000D01*
X86103947Y-86085000D01*
X86710827Y-85478119D01*
X86594678Y-85406202D01*
X86594677Y-85406201D01*
X86387304Y-85325865D01*
X86168693Y-85285000D01*
X85946306Y-85285000D01*
X85880284Y-85297341D01*
X85834716Y-85297341D01*
X85768694Y-85285000D01*
X85546307Y-85285000D01*
X85327695Y-85325865D01*
X85120324Y-85406200D01*
X85120323Y-85406201D01*
X85004171Y-85478119D01*
X85611053Y-86085000D01*
X85604839Y-86085000D01*
X85503106Y-86112259D01*
X85411894Y-86164920D01*
X85337420Y-86239394D01*
X85284759Y-86330606D01*
X85257500Y-86432339D01*
X85257500Y-86438553D01*
X84648638Y-85829691D01*
X84648637Y-85829691D01*
X84632868Y-85850574D01*
X84533740Y-86049649D01*
X84472878Y-86263560D01*
X84452359Y-86484999D01*
X83385860Y-86484999D01*
X83385500Y-83825399D01*
X83385971Y-83814609D01*
X83400802Y-83645088D01*
X83404555Y-83623807D01*
X83435954Y-83506624D01*
X83447193Y-83464678D01*
X83454579Y-83444385D01*
X83524207Y-83295069D01*
X83534998Y-83276378D01*
X83629502Y-83141411D01*
X83643380Y-83124873D01*
X83759873Y-83008380D01*
X83776411Y-82994502D01*
X83911378Y-82899998D01*
X83930069Y-82889207D01*
X84079385Y-82819579D01*
X84099678Y-82812193D01*
X84258807Y-82769554D01*
X84280090Y-82765802D01*
X84449605Y-82750972D01*
X84460412Y-82750500D01*
X84509296Y-82750500D01*
X84509327Y-82750496D01*
X105901011Y-82749186D01*
X105968050Y-82768866D01*
X106013808Y-82821668D01*
X106023756Y-82890826D01*
X105994735Y-82954383D01*
X105984555Y-82964823D01*
X105863237Y-83075418D01*
X105740327Y-83238178D01*
X105649422Y-83420739D01*
X105649417Y-83420752D01*
X105593602Y-83616917D01*
X105574785Y-83819999D01*
X105574785Y-83820000D01*
X105593602Y-84023082D01*
X105649417Y-84219247D01*
X105649422Y-84219260D01*
X105740327Y-84401821D01*
X105863237Y-84564581D01*
X106013958Y-84701980D01*
X106013960Y-84701982D01*
X106113141Y-84763392D01*
X106187363Y-84809348D01*
X106377544Y-84883024D01*
X106578024Y-84920500D01*
X106578026Y-84920500D01*
X106781974Y-84920500D01*
X106781976Y-84920500D01*
X106982456Y-84883024D01*
X107172637Y-84809348D01*
X107346041Y-84701981D01*
X107496764Y-84564579D01*
X107496765Y-84564578D01*
X107500063Y-84560961D01*
X107559774Y-84524680D01*
X107591699Y-84520500D01*
X110148481Y-84520500D01*
X110215520Y-84540185D01*
X110236162Y-84556819D01*
X111658181Y-85978838D01*
X111691666Y-86040161D01*
X111694500Y-86066519D01*
X111694500Y-88997373D01*
X111674815Y-89064412D01*
X111622011Y-89110167D01*
X111552853Y-89120111D01*
X111489297Y-89091086D01*
X111471233Y-89071684D01*
X111435115Y-89023436D01*
X110494309Y-89964242D01*
X110475332Y-89918426D01*
X110398726Y-89803776D01*
X110301224Y-89706274D01*
X110186574Y-89629668D01*
X110140756Y-89610689D01*
X111081562Y-88669883D01*
X111081561Y-88669882D01*
X110939046Y-88563196D01*
X110939038Y-88563191D01*
X110687957Y-88426091D01*
X110687958Y-88426091D01*
X110419895Y-88326109D01*
X110140362Y-88265300D01*
X109855001Y-88244891D01*
X109854999Y-88244891D01*
X109569637Y-88265300D01*
X109290104Y-88326109D01*
X109022041Y-88426091D01*
X108770961Y-88563191D01*
X108770953Y-88563196D01*
X108628437Y-88669882D01*
X108628436Y-88669883D01*
X109569243Y-89610689D01*
X109523426Y-89629668D01*
X109408776Y-89706274D01*
X109311274Y-89803776D01*
X109234668Y-89918426D01*
X109215690Y-89964243D01*
X108274883Y-89023436D01*
X108274882Y-89023437D01*
X108168196Y-89165953D01*
X108168191Y-89165961D01*
X108031091Y-89417041D01*
X107931109Y-89685104D01*
X107870300Y-89964637D01*
X107849891Y-90249998D01*
X107849891Y-90250001D01*
X107870300Y-90535362D01*
X107931109Y-90814895D01*
X108031091Y-91082958D01*
X108168191Y-91334038D01*
X108168196Y-91334046D01*
X108274882Y-91476561D01*
X108274883Y-91476562D01*
X109215689Y-90535756D01*
X109234668Y-90581574D01*
X109311274Y-90696224D01*
X109408776Y-90793726D01*
X109523426Y-90870332D01*
X109569242Y-90889309D01*
X108628436Y-91830115D01*
X108770960Y-91936807D01*
X108770961Y-91936808D01*
X109022042Y-92073908D01*
X109022041Y-92073908D01*
X109290104Y-92173890D01*
X109430051Y-92204334D01*
X109491374Y-92237819D01*
X109524859Y-92299142D01*
X109519875Y-92368834D01*
X109478003Y-92424767D01*
X109412539Y-92449184D01*
X109403693Y-92449500D01*
X103217996Y-92449500D01*
X103152719Y-92430927D01*
X103127643Y-92415401D01*
X103127636Y-92415397D01*
X103032547Y-92378560D01*
X102937457Y-92341722D01*
X102736977Y-92304246D01*
X102533025Y-92304246D01*
X102332545Y-92341722D01*
X102332542Y-92341722D01*
X102332542Y-92341723D01*
X102142365Y-92415397D01*
X102142358Y-92415401D01*
X101968961Y-92522763D01*
X101968959Y-92522765D01*
X101818238Y-92660164D01*
X101695328Y-92822924D01*
X101604423Y-93005485D01*
X101604418Y-93005498D01*
X101548603Y-93201663D01*
X101529786Y-93404745D01*
X101529786Y-93404746D01*
X101548603Y-93607828D01*
X101604418Y-93803993D01*
X101604423Y-93804006D01*
X101695328Y-93986567D01*
X101818238Y-94149327D01*
X101968959Y-94286726D01*
X101968961Y-94286728D01*
X102068142Y-94348138D01*
X102142364Y-94394094D01*
X102332545Y-94467770D01*
X102533025Y-94505246D01*
X102533027Y-94505246D01*
X102736975Y-94505246D01*
X102736977Y-94505246D01*
X102937457Y-94467770D01*
X103127638Y-94394094D01*
X103301042Y-94286727D01*
X103451765Y-94149325D01*
X103574674Y-93986567D01*
X103608205Y-93919226D01*
X103655706Y-93867992D01*
X103719204Y-93850500D01*
X107730500Y-93850500D01*
X107797539Y-93870185D01*
X107843294Y-93922989D01*
X107854500Y-93974500D01*
X107854500Y-94708538D01*
X107834815Y-94775577D01*
X107818181Y-94796219D01*
X105026220Y-97588181D01*
X104964897Y-97621666D01*
X104938539Y-97624500D01*
X94362940Y-97624500D01*
X94295901Y-97604815D01*
X94275259Y-97588181D01*
X92910447Y-96223369D01*
X92876962Y-96162046D01*
X92874128Y-96135688D01*
X92874128Y-91833260D01*
X96140000Y-91833260D01*
X96140000Y-92961447D01*
X96861447Y-92240000D01*
X96821665Y-92200218D01*
X97015000Y-92200218D01*
X97015000Y-92279782D01*
X97045448Y-92353291D01*
X97101709Y-92409552D01*
X97175218Y-92440000D01*
X97254782Y-92440000D01*
X97328291Y-92409552D01*
X97384552Y-92353291D01*
X97415000Y-92279782D01*
X97415000Y-92200218D01*
X97384552Y-92126709D01*
X97328291Y-92070448D01*
X97254782Y-92040000D01*
X97175218Y-92040000D01*
X97101709Y-92070448D01*
X97045448Y-92126709D01*
X97015000Y-92200218D01*
X96821665Y-92200218D01*
X96415000Y-91793553D01*
X96414999Y-91793553D01*
X96340357Y-91868195D01*
X96279034Y-91901680D01*
X96209342Y-91896696D01*
X96153409Y-91854824D01*
X96145010Y-91842029D01*
X96140000Y-91833260D01*
X92874128Y-91833260D01*
X92874128Y-91046737D01*
X96140000Y-91046737D01*
X96145010Y-91037969D01*
X96195359Y-90989526D01*
X96263906Y-90975994D01*
X96328887Y-91001669D01*
X96340358Y-91011803D01*
X96415000Y-91086445D01*
X96861447Y-90640000D01*
X96861447Y-90639999D01*
X96821666Y-90600218D01*
X97015000Y-90600218D01*
X97015000Y-90679782D01*
X97045448Y-90753291D01*
X97101709Y-90809552D01*
X97175218Y-90840000D01*
X97254782Y-90840000D01*
X97328291Y-90809552D01*
X97384552Y-90753291D01*
X97415000Y-90679782D01*
X97415000Y-90600218D01*
X97384552Y-90526709D01*
X97328291Y-90470448D01*
X97254782Y-90440000D01*
X97175218Y-90440000D01*
X97101709Y-90470448D01*
X97045448Y-90526709D01*
X97015000Y-90600218D01*
X96821666Y-90600218D01*
X96140000Y-89918552D01*
X96140000Y-91046737D01*
X92874128Y-91046737D01*
X92874128Y-89427775D01*
X96356328Y-89427775D01*
X97480872Y-90552319D01*
X97514357Y-90613642D01*
X97509373Y-90683334D01*
X97480872Y-90727681D01*
X96768553Y-91440000D01*
X97480872Y-92152319D01*
X97514357Y-92213642D01*
X97509373Y-92283334D01*
X97480872Y-92327681D01*
X96356329Y-93452223D01*
X96397909Y-93483351D01*
X96532623Y-93533597D01*
X96532627Y-93533598D01*
X96592155Y-93539999D01*
X96592172Y-93540000D01*
X98987828Y-93540000D01*
X98987844Y-93539999D01*
X99047372Y-93533598D01*
X99047376Y-93533597D01*
X99182090Y-93483352D01*
X99223669Y-93452223D01*
X98099127Y-92327681D01*
X98065642Y-92266358D01*
X98070372Y-92200218D01*
X98165000Y-92200218D01*
X98165000Y-92279782D01*
X98195448Y-92353291D01*
X98251709Y-92409552D01*
X98325218Y-92440000D01*
X98404782Y-92440000D01*
X98478291Y-92409552D01*
X98534552Y-92353291D01*
X98565000Y-92279782D01*
X98565000Y-92239999D01*
X98718553Y-92239999D01*
X98718553Y-92240001D01*
X99439999Y-92961447D01*
X99440000Y-92961446D01*
X99440000Y-91833259D01*
X99439999Y-91833259D01*
X99434988Y-91842031D01*
X99384639Y-91890474D01*
X99316092Y-91904005D01*
X99251111Y-91878330D01*
X99239642Y-91868196D01*
X99164999Y-91793553D01*
X99164998Y-91793553D01*
X98718553Y-92239999D01*
X98565000Y-92239999D01*
X98565000Y-92200218D01*
X98534552Y-92126709D01*
X98478291Y-92070448D01*
X98404782Y-92040000D01*
X98325218Y-92040000D01*
X98251709Y-92070448D01*
X98195448Y-92126709D01*
X98165000Y-92200218D01*
X98070372Y-92200218D01*
X98070626Y-92196666D01*
X98099127Y-92152319D01*
X98365000Y-91886447D01*
X98811446Y-91440000D01*
X98099127Y-90727681D01*
X98065642Y-90666358D01*
X98070372Y-90600218D01*
X98165000Y-90600218D01*
X98165000Y-90679782D01*
X98195448Y-90753291D01*
X98251709Y-90809552D01*
X98325218Y-90840000D01*
X98404782Y-90840000D01*
X98478291Y-90809552D01*
X98534552Y-90753291D01*
X98565000Y-90679782D01*
X98565000Y-90639999D01*
X98718553Y-90639999D01*
X98718553Y-90640000D01*
X99164998Y-91086446D01*
X99164999Y-91086446D01*
X99239642Y-91011803D01*
X99300965Y-90978318D01*
X99370657Y-90983302D01*
X99426590Y-91025174D01*
X99434989Y-91037969D01*
X99440000Y-91046739D01*
X99440000Y-89918553D01*
X99439999Y-89918552D01*
X98718553Y-90639999D01*
X98565000Y-90639999D01*
X98565000Y-90600218D01*
X98534552Y-90526709D01*
X98478291Y-90470448D01*
X98404782Y-90440000D01*
X98325218Y-90440000D01*
X98251709Y-90470448D01*
X98195448Y-90526709D01*
X98165000Y-90600218D01*
X98070372Y-90600218D01*
X98070626Y-90596666D01*
X98099127Y-90552319D01*
X98365000Y-90286447D01*
X99223670Y-89427775D01*
X99182090Y-89396648D01*
X99047376Y-89346402D01*
X99047372Y-89346401D01*
X98987844Y-89340000D01*
X96592155Y-89340000D01*
X96532627Y-89346401D01*
X96532620Y-89346403D01*
X96397913Y-89396645D01*
X96397910Y-89396647D01*
X96356328Y-89427775D01*
X92874128Y-89427775D01*
X92874128Y-89049833D01*
X92893813Y-88982794D01*
X92899167Y-88975115D01*
X93013301Y-88823978D01*
X93104210Y-88641407D01*
X93160025Y-88445240D01*
X93178843Y-88242157D01*
X93160025Y-88039074D01*
X93104210Y-87842907D01*
X93013301Y-87660336D01*
X92890392Y-87497578D01*
X92890390Y-87497575D01*
X92739669Y-87360176D01*
X92739667Y-87360174D01*
X92566270Y-87252812D01*
X92566263Y-87252808D01*
X92471174Y-87215971D01*
X92376084Y-87179133D01*
X92175604Y-87141657D01*
X91971652Y-87141657D01*
X91771172Y-87179133D01*
X91771169Y-87179133D01*
X91771169Y-87179134D01*
X91580992Y-87252808D01*
X91580985Y-87252812D01*
X91407588Y-87360174D01*
X91407586Y-87360176D01*
X91256865Y-87497575D01*
X91133955Y-87660335D01*
X91043050Y-87842896D01*
X91043045Y-87842909D01*
X90987230Y-88039074D01*
X90968413Y-88242156D01*
X90968413Y-88242157D01*
X90987230Y-88445239D01*
X91043045Y-88641404D01*
X91043050Y-88641417D01*
X91133955Y-88823978D01*
X91248082Y-88975107D01*
X91272774Y-89040467D01*
X91273128Y-89049833D01*
X91273128Y-94826534D01*
X91253443Y-94893573D01*
X91200639Y-94939328D01*
X91131481Y-94949272D01*
X91067925Y-94920247D01*
X91030151Y-94861469D01*
X91029861Y-94860468D01*
X90981259Y-94689649D01*
X90882135Y-94490580D01*
X90882130Y-94490572D01*
X90866360Y-94469690D01*
X90257500Y-95078551D01*
X90257500Y-95072339D01*
X90230241Y-94970606D01*
X90177580Y-94879394D01*
X90103106Y-94804920D01*
X90011894Y-94752259D01*
X89910161Y-94725000D01*
X89903947Y-94725000D01*
X90510827Y-94118119D01*
X90394678Y-94046202D01*
X90394677Y-94046201D01*
X90187304Y-93965865D01*
X89968693Y-93925000D01*
X89746306Y-93925000D01*
X89680284Y-93937341D01*
X89634716Y-93937341D01*
X89568694Y-93925000D01*
X89346307Y-93925000D01*
X89127695Y-93965865D01*
X88920324Y-94046200D01*
X88920323Y-94046201D01*
X88804171Y-94118119D01*
X89411053Y-94725000D01*
X89404839Y-94725000D01*
X89303106Y-94752259D01*
X89211894Y-94804920D01*
X89137420Y-94879394D01*
X89084759Y-94970606D01*
X89057500Y-95072339D01*
X89057500Y-95078553D01*
X88448638Y-94469691D01*
X88448637Y-94469691D01*
X88432868Y-94490574D01*
X88333740Y-94689649D01*
X88272878Y-94903560D01*
X88252359Y-95124999D01*
X88252359Y-95125000D01*
X88272878Y-95346439D01*
X88333740Y-95560350D01*
X88432869Y-95759428D01*
X88448637Y-95780308D01*
X88448638Y-95780308D01*
X89057500Y-95171446D01*
X89057500Y-95177661D01*
X89084759Y-95279394D01*
X89137420Y-95370606D01*
X89211894Y-95445080D01*
X89303106Y-95497741D01*
X89404839Y-95525000D01*
X89411052Y-95525000D01*
X88804172Y-96131879D01*
X88804172Y-96131880D01*
X88920321Y-96203797D01*
X88920322Y-96203798D01*
X89127695Y-96284134D01*
X89346307Y-96325000D01*
X89568695Y-96325000D01*
X89568700Y-96324999D01*
X89634714Y-96312659D01*
X89680286Y-96312659D01*
X89746299Y-96324999D01*
X89746305Y-96325000D01*
X89968693Y-96325000D01*
X90187309Y-96284133D01*
X90394668Y-96203801D01*
X90394681Y-96203795D01*
X90510826Y-96131879D01*
X89903947Y-95525000D01*
X89910161Y-95525000D01*
X90011894Y-95497741D01*
X90103106Y-95445080D01*
X90177580Y-95370606D01*
X90230241Y-95279394D01*
X90257500Y-95177661D01*
X90257500Y-95171447D01*
X90866361Y-95780308D01*
X90882131Y-95759425D01*
X90882133Y-95759422D01*
X90981260Y-95560349D01*
X91029861Y-95389532D01*
X91067140Y-95330438D01*
X91130450Y-95300880D01*
X91199689Y-95310242D01*
X91252876Y-95355551D01*
X91273124Y-95422423D01*
X91273128Y-95423465D01*
X91273128Y-96597474D01*
X91303889Y-96752117D01*
X91303892Y-96752129D01*
X91364230Y-96897800D01*
X91364237Y-96897813D01*
X91451838Y-97028916D01*
X91451841Y-97028920D01*
X93358211Y-98935289D01*
X93469708Y-99046786D01*
X93469712Y-99046790D01*
X93600814Y-99134390D01*
X93600827Y-99134397D01*
X93746498Y-99194735D01*
X93746503Y-99194737D01*
X93746507Y-99194737D01*
X93746508Y-99194738D01*
X93901154Y-99225500D01*
X93901157Y-99225500D01*
X105400323Y-99225500D01*
X105400324Y-99225499D01*
X105554976Y-99194737D01*
X105700658Y-99134394D01*
X105831768Y-99046789D01*
X107799323Y-97079232D01*
X107860644Y-97045749D01*
X107930335Y-97050733D01*
X107986268Y-97092604D01*
X107997452Y-97107544D01*
X107997455Y-97107547D01*
X108112664Y-97193793D01*
X108112671Y-97193797D01*
X108247517Y-97244091D01*
X108247516Y-97244091D01*
X108254444Y-97244835D01*
X108307127Y-97250500D01*
X111402872Y-97250499D01*
X111462483Y-97244091D01*
X111597331Y-97193796D01*
X111712546Y-97107546D01*
X111798796Y-96992331D01*
X111849091Y-96857483D01*
X111855500Y-96797873D01*
X111855499Y-93702128D01*
X111849091Y-93642517D01*
X111836153Y-93607829D01*
X111798797Y-93507671D01*
X111798793Y-93507664D01*
X111712548Y-93392456D01*
X111712546Y-93392455D01*
X111712546Y-93392454D01*
X111667349Y-93358619D01*
X111625480Y-93302688D01*
X111620496Y-93232997D01*
X111653979Y-93171676D01*
X112939114Y-91886543D01*
X113015775Y-91771811D01*
X113068580Y-91644329D01*
X113068580Y-91644325D01*
X113068582Y-91644322D01*
X113073934Y-91617411D01*
X113073934Y-91617409D01*
X113095500Y-91508993D01*
X113095500Y-85656007D01*
X113095500Y-85656004D01*
X113068581Y-85520677D01*
X113068580Y-85520676D01*
X113068580Y-85520672D01*
X113050954Y-85478119D01*
X113015777Y-85393192D01*
X112939112Y-85278454D01*
X110936545Y-83275887D01*
X110821807Y-83199222D01*
X110694332Y-83146421D01*
X110694322Y-83146418D01*
X110558996Y-83119500D01*
X110558994Y-83119500D01*
X110558993Y-83119500D01*
X107591699Y-83119500D01*
X107524660Y-83099815D01*
X107500063Y-83079039D01*
X107496765Y-83075421D01*
X107375340Y-82964728D01*
X107339058Y-82905017D01*
X107340819Y-82835169D01*
X107380062Y-82777362D01*
X107444329Y-82749947D01*
X107458865Y-82749091D01*
X113760164Y-82748705D01*
X113770961Y-82749176D01*
G37*
%TD.AperFunction*%
%TD*%
M02*
