%TF.GenerationSoftware,KiCad,Pcbnew,8.0.2*%
%TF.CreationDate,2024-12-05T16:11:27+05:30*%
%TF.ProjectId,USB PD,55534220-5044-42e6-9b69-6361645f7063,rev?*%
%TF.SameCoordinates,Original*%
%TF.FileFunction,Soldermask,Top*%
%TF.FilePolarity,Negative*%
%FSLAX46Y46*%
G04 Gerber Fmt 4.6, Leading zero omitted, Abs format (unit mm)*
G04 Created by KiCad (PCBNEW 8.0.2) date 2024-12-05 16:11:27*
%MOMM*%
%LPD*%
G01*
G04 APERTURE LIST*
G04 Aperture macros list*
%AMRoundRect*
0 Rectangle with rounded corners*
0 $1 Rounding radius*
0 $2 $3 $4 $5 $6 $7 $8 $9 X,Y pos of 4 corners*
0 Add a 4 corners polygon primitive as box body*
4,1,4,$2,$3,$4,$5,$6,$7,$8,$9,$2,$3,0*
0 Add four circle primitives for the rounded corners*
1,1,$1+$1,$2,$3*
1,1,$1+$1,$4,$5*
1,1,$1+$1,$6,$7*
1,1,$1+$1,$8,$9*
0 Add four rect primitives between the rounded corners*
20,1,$1+$1,$2,$3,$4,$5,0*
20,1,$1+$1,$4,$5,$6,$7,0*
20,1,$1+$1,$6,$7,$8,$9,0*
20,1,$1+$1,$8,$9,$2,$3,0*%
%AMFreePoly0*
4,1,19,0.550000,-0.750000,0.000000,-0.750000,0.000000,-0.744911,-0.071157,-0.744911,-0.207708,-0.704816,-0.327430,-0.627875,-0.420627,-0.520320,-0.479746,-0.390866,-0.500000,-0.250000,-0.500000,0.250000,-0.479746,0.390866,-0.420627,0.520320,-0.327430,0.627875,-0.207708,0.704816,-0.071157,0.744911,0.000000,0.744911,0.000000,0.750000,0.550000,0.750000,0.550000,-0.750000,0.550000,-0.750000,
$1*%
%AMFreePoly1*
4,1,19,0.000000,0.744911,0.071157,0.744911,0.207708,0.704816,0.327430,0.627875,0.420627,0.520320,0.479746,0.390866,0.500000,0.250000,0.500000,-0.250000,0.479746,-0.390866,0.420627,-0.520320,0.327430,-0.627875,0.207708,-0.704816,0.071157,-0.744911,0.000000,-0.744911,0.000000,-0.750000,-0.550000,-0.750000,-0.550000,0.750000,0.000000,0.750000,0.000000,0.744911,0.000000,0.744911,
$1*%
G04 Aperture macros list end*
%ADD10R,1.200000X0.590000*%
%ADD11R,1.200000X0.800000*%
%ADD12C,1.400000*%
%ADD13C,3.000000*%
%ADD14R,3.000000X3.000000*%
%ADD15R,1.300000X0.600000*%
%ADD16R,1.150000X1.600000*%
%ADD17RoundRect,0.250000X-0.350000X-0.450000X0.350000X-0.450000X0.350000X0.450000X-0.350000X0.450000X0*%
%ADD18R,1.400000X1.700000*%
%ADD19FreePoly0,270.000000*%
%ADD20R,1.500000X1.000000*%
%ADD21FreePoly1,270.000000*%
G04 APERTURE END LIST*
D10*
%TO.C,J1*%
X89657500Y-90305000D03*
X89657500Y-92325000D03*
D11*
X89657500Y-93555000D03*
D10*
X89657500Y-91305000D03*
X89657500Y-89285000D03*
D11*
X89657500Y-88055000D03*
D12*
X86057500Y-86485000D03*
X85657500Y-95125000D03*
X86057500Y-95125000D03*
X89857500Y-95125000D03*
X89457500Y-95125000D03*
X89457500Y-86485000D03*
X85657500Y-86485000D03*
X89857500Y-86485000D03*
%TD*%
D13*
%TO.C,J2*%
X109855000Y-90250000D03*
D14*
X109855000Y-95250000D03*
%TD*%
D15*
%TO.C,U1*%
X94940000Y-93440000D03*
X94940000Y-92440000D03*
X94940000Y-91440000D03*
X94940000Y-90440000D03*
X94940000Y-89440000D03*
X100640000Y-89440000D03*
X100640000Y-90440000D03*
X100640000Y-91440000D03*
X100640000Y-92440000D03*
X100640000Y-93440000D03*
D16*
X97215000Y-90640000D03*
X97215000Y-92240000D03*
X98365000Y-90640000D03*
X98365000Y-92240000D03*
%TD*%
D17*
%TO.C,R3*%
X87900000Y-97790000D03*
X89900000Y-97790000D03*
%TD*%
%TO.C,R2*%
X87900000Y-83820000D03*
X89900000Y-83820000D03*
%TD*%
D18*
%TO.C,R1*%
X92280000Y-95250000D03*
X95680000Y-95250000D03*
%TD*%
D19*
%TO.C,JP3*%
X93980000Y-83630000D03*
D20*
X93980000Y-85090000D03*
D21*
X93980000Y-86550000D03*
%TD*%
D19*
%TO.C,JP2*%
X99060000Y-83630000D03*
D20*
X99060000Y-85090000D03*
D21*
X99060000Y-86550000D03*
%TD*%
D19*
%TO.C,JP1*%
X104775000Y-83630000D03*
D20*
X104775000Y-85090000D03*
D21*
X104775000Y-86550000D03*
%TD*%
D18*
%TO.C,C1*%
X101395000Y-95250000D03*
X97995000Y-95250000D03*
%TD*%
M02*
